<svg xmlns="http://www.w3.org/2000/svg" viewBox="0 0 18.229 18.129">
  <defs>
    <style>
      .cls-1, .cls-2 {
        fill: #fff;
      }

      .cls-1 {
        fill-rule: evenodd;
      }
    </style>
  </defs>
  <g id="promotional_artwork" data-name="promotional artwork" transform="translate(0.1)">
    <path id="Path_3373" data-name="Path 3373" class="cls-1" d="M7.641,9.277C9.262,8.583,10.883,7.855,12.5,7.16c.265-.132.463-.3.331-.6q-.2-.4-.695-.2c-1.687.761-3.374,1.489-5.095,2.183-.132.066-.3-.033-.463-.1a4.721,4.721,0,0,0-1.257-.43c-1.224-.066-2.481-.033-3.705,0A1.681,1.681,0,0,0-.1,9.707c.033,1.72.033,3.407.033,5.128a1.6,1.6,0,0,0,.926,1.489.536.536,0,0,1,.331.562v3.507a1.976,1.976,0,0,0,.662,1.489,2.337,2.337,0,0,0,1.389.463,2.342,2.342,0,0,0,1.853-1.389,1.341,1.341,0,0,0,.1-.331h0c0-.1.033-.2.033-.331V19.037H5.59A2.993,2.993,0,0,0,8.8,17.118c.1-.3.3-.265.529-.165.893.4,1.82.761,2.713,1.191.331.165.6.132.728-.165.165-.331-.1-.5-.364-.6-1.621-.695-3.242-1.423-4.9-2.117a.607.607,0,0,1-.43-.629c0-1.555.033-3.11,0-4.665A.832.832,0,0,1,7.641,9.277ZM.793,14.571V9.939c0-.728.331-1.059,1.092-1.059H5.226c.761,0,1.092.331,1.092,1.092V14.6c0,.761-.331,1.092-1.125,1.092H1.885C1.124,15.662.793,15.332.793,14.571Zm2.547,6.881a3.309,3.309,0,0,1-.86-.165.722.722,0,0,1-.132-.165,2.451,2.451,0,0,1-.3-1.555V16.953c0-.331.132-.463.463-.463H4c.3,0,.43.132.43.4a20.283,20.283,0,0,1-.165,4A1.087,1.087,0,0,1,3.341,21.452Zm4.731-5.029a.257.257,0,0,1,.066.265A2.152,2.152,0,0,1,5.921,18.21c-.6-.1-.629-.132-.629-1.026-.132-.4,0-.728.6-.728a1.56,1.56,0,0,0,.5-.2c.2-.1.4-.364.529-.331A5.813,5.813,0,0,1,8.071,16.423Z" transform="translate(0 -4.216)"/>
    <path id="Path_3374" data-name="Path 3374" class="cls-1" d="M39.383,0H38.49c-.926,0-1.29.364-1.29,1.29v13.7a1.012,1.012,0,0,0,1.125,1.125h.761c1.158,0,1.489-.331,1.489-1.489V1.456a2.184,2.184,0,0,0-.033-.463A1.08,1.08,0,0,0,39.383,0Zm.3,1.82V14.656c0,.629,0,.629-.629.662-1.224,0-1.059.033-1.059-1.059V1.555c0-.728,0-.728.695-.728C39.814.827,39.681.761,39.681,1.82Z" transform="translate(-24.96)"/>
    <g id="Group_722" data-name="Group 722" transform="translate(2.447 6.352)">
      <path id="Path_3375" data-name="Path 3375" class="cls-2" d="M9.42,20.06H8.03a.43.43,0,1,1,0-.86H9.42a.43.43,0,1,1,0,.86Z" transform="translate(-7.6 -19.2)"/>
    </g>
    <g id="Group_723" data-name="Group 723" transform="translate(2.447 8.866)">
      <path id="Path_3376" data-name="Path 3376" class="cls-2" d="M9.42,27.66H8.03a.43.43,0,1,1,0-.86H9.42a.43.43,0,0,1,0,.86Z" transform="translate(-7.6 -26.8)"/>
    </g>
    <g id="Group_724" data-name="Group 724" transform="translate(16.64 2.547)">
      <path id="Path_3377" data-name="Path 3377" class="cls-2" d="M51.559,8.56H50.93a.43.43,0,0,1,0-.86h.629a.462.462,0,0,1,.43.43A.438.438,0,0,1,51.559,8.56Z" transform="translate(-50.5 -7.7)"/>
    </g>
    <g id="Group_725" data-name="Group 725" transform="translate(16.64 5.095)">
      <path id="Path_3378" data-name="Path 3378" class="cls-2" d="M51.559,16.26H50.93a.43.43,0,0,1,0-.86h.629a.43.43,0,0,1,0,.86Z" transform="translate(-50.5 -15.4)"/>
    </g>
    <g id="Group_726" data-name="Group 726" transform="translate(16.64 7.609)">
      <path id="Path_3379" data-name="Path 3379" class="cls-2" d="M51.559,23.86H50.93a.43.43,0,0,1,0-.86h.629a.438.438,0,0,1,.43.43A.417.417,0,0,1,51.559,23.86Z" transform="translate(-50.5 -23)"/>
    </g>
    <g id="Group_727" data-name="Group 727" transform="translate(16.64 10.156)">
      <path id="Path_3380" data-name="Path 3380" class="cls-2" d="M51.559,31.56H50.93a.43.43,0,0,1,0-.86h.629a.43.43,0,0,1,0,.86Z" transform="translate(-50.5 -30.7)"/>
    </g>
    <g id="Group_728" data-name="Group 728" transform="translate(16.64 12.671)">
      <path id="Path_3381" data-name="Path 3381" class="cls-2" d="M51.559,39.16H50.93a.43.43,0,0,1,0-.86h.629a.438.438,0,0,1,.43.43A.417.417,0,0,1,51.559,39.16Z" transform="translate(-50.5 -38.3)"/>
    </g>
  </g>
</svg>
