<svg id="Website_design_and_build" data-name="Website design and build" xmlns="http://www.w3.org/2000/svg" viewBox="0 0 14.783 14.124">
  <defs>
    <style>
      .cls-1, .cls-2 {
        fill: #fff;
      }

      .cls-1 {
        fill-rule: evenodd;
      }
    </style>
  </defs>
  <g id="Group_716" data-name="Group 716" transform="translate(0 0)">
    <path id="Path_3333" data-name="Path 3333" class="cls-1" d="M8.812,13.486c-.081-.054-.188-.027-.3-.027H1.4c-.618,0-.779-.161-.779-.779V4.164c0-.43.027-.457.457-.457H13.621c.51,0,.51,0,.51.537V7.872c0,.107-.027.215.027.3.054.107.188.242.3.242s.215-.134.3-.242c.054-.054.027-.161.027-.269V1.155A1.405,1.405,0,0,0,14.7.672,1.19,1.19,0,0,0,13.459,0H1.048A1.074,1.074,0,0,0,0,1.155V12.734c0,.913.43,1.343,1.37,1.343H8.516c.107,0,.215.027.3-.027.107-.081.269-.188.269-.3C9.08,13.674,8.919,13.567,8.812,13.486ZM.618,2.687c.027-.484,0-.967,0-1.451,0-.457.134-.591.618-.591h12.2c.591,0,.7.107.7.7V2.66c0,.43,0,.43-.457.43H1.021C.725,3.09.618,3.009.618,2.687Z" transform="translate(0 0)"/>
    <path id="Path_3334" data-name="Path 3334" class="cls-1" d="M37.94,33.832c-.645-.7-.752-.484,0-1.209.322-.322.269-.564-.161-.672-.967-.242-1.934-.457-2.9-.672-.349-.081-.725-.161-1.075-.215-.322-.054-.4.054-.4.457.054.269.134.591.215.94.242,1.021.457,2.042.725,3.063.081.349.349.4.591.161.161-.134.3-.3.457-.457.161-.188.3-.161.457,0,.457.484.94.967,1.424,1.424.242.242.4.242.672,0,.376-.349.725-.725,1.075-1.1a.4.4,0,0,0,0-.672C38.666,34.531,38.289,34.181,37.94,33.832Zm.242,1.639c-.591.537-.564.564-1.155-.027-.376-.349-.725-.725-1.1-1.075-.269-.269-.4-.269-.672,0l-.107.107c-.242.242-.322.215-.4-.107-.161-.7-.322-1.4-.484-2.122-.027-.134-.027-.3-.054-.51.564.107,1.021.215,1.5.322.349.081.725.161,1.075.242s.376.161.134.43c-.054.054-.081.107-.134.134a.377.377,0,0,0,0,.618c.484.457.94.94,1.424,1.4C38.37,35.148,38.4,35.283,38.182,35.471Z" transform="translate(-24.427 -22.71)"/>
    <path id="Path_3335" data-name="Path 3335" class="cls-2" d="M23.549,21.694h2.1a.356.356,0,0,0,.349-.349v-2.1a.356.356,0,0,0-.349-.349h-2.1a.356.356,0,0,0-.349.349v2.1A.356.356,0,0,0,23.549,21.694Zm.269-2.176h1.531v1.558H23.818Z" transform="translate(-16.967 -13.822)"/>
    <path id="Path_3336" data-name="Path 3336" class="cls-2" d="M7.749,21.694h2.1a.356.356,0,0,0,.349-.349v-2.1a.356.356,0,0,0-.349-.349h-2.1a.356.356,0,0,0-.349.349v2.1A.356.356,0,0,0,7.749,21.694Zm.269-2.176H9.549v1.558H8.018Z" transform="translate(-5.412 -13.822)"/>
    <path id="Path_3337" data-name="Path 3337" class="cls-2" d="M7.749,37.494h2.1a.356.356,0,0,0,.349-.349v-2.1a.356.356,0,0,0-.349-.349h-2.1a.356.356,0,0,0-.349.349v2.1A.356.356,0,0,0,7.749,37.494Zm.269-2.176H9.549v1.531H8.018Z" transform="translate(-5.412 -25.378)"/>
    <g id="Group_713" data-name="Group 713" transform="translate(6.179 9.295)">
      <path id="Path_3338" data-name="Path 3338" class="cls-2" d="M25.1,37.448H23.376A.367.367,0,0,1,23,37.072v-2.1a.367.367,0,0,1,.376-.376h1.263a.322.322,0,1,1,0,.645h-.994v1.531h1.424a.337.337,0,0,1,.027.672Z" transform="translate(-23 -34.6)"/>
    </g>
    <path id="Path_3339" data-name="Path 3339" class="cls-2" d="M14.791,6.364c0,.027-.027.027-.054.027h-.484a.058.058,0,0,1-.054-.054V5.854a.058.058,0,0,1,.054-.054h.484a.058.058,0,0,1,.054.054Z" transform="translate(-10.385 -4.242)"/>
    <path id="Path_3340" data-name="Path 3340" class="cls-2" d="M21.791,6.364c0,.027-.027.027-.054.027h-.484a.058.058,0,0,1-.054-.054V5.854a.058.058,0,0,1,.054-.054h.484a.058.058,0,0,1,.054.054Z" transform="translate(-15.505 -4.242)"/>
    <path id="Path_3341" data-name="Path 3341" class="cls-2" d="M7.791,6.364c0,.027-.027.027-.054.027H7.254c-.027,0-.054,0-.054-.027v-.51A.058.058,0,0,1,7.254,5.8h.484l.054.054Z" transform="translate(-5.266 -4.242)"/>
    <g id="Group_714" data-name="Group 714" transform="translate(10.263 5.078)">
      <path id="Path_3342" data-name="Path 3342" class="cls-2" d="M40.618,19.545h-2.1a.322.322,0,1,1,0-.645h2.1a.31.31,0,0,1,.322.322A.327.327,0,0,1,40.618,19.545Z" transform="translate(-38.2 -18.9)"/>
    </g>
    <g id="Group_715" data-name="Group 715" transform="translate(10.263 7.227)">
      <path id="Path_3343" data-name="Path 3343" class="cls-2" d="M40.618,27.545h-2.1a.322.322,0,1,1,0-.645h2.1a.31.31,0,0,1,.322.322A.327.327,0,0,1,40.618,27.545Z" transform="translate(-38.2 -26.9)"/>
    </g>
  </g>
</svg>
