<svg xmlns="http://www.w3.org/2000/svg" viewBox="0 0 16.9 16.901">
  <defs>
    <style>
      .cls-1 {
        fill: #5472c6;
      }
    </style>
  </defs>
  <path id="assa_and_CRM" data-name="assa and CRM" class="cls-1" d="M16.9,8.451A8.434,8.434,0,0,0,13.06,1.383,8.2,8.2,0,0,0,8.451,0a8.442,8.442,0,0,0-2.8,16.41,8.636,8.636,0,0,0,2.8.492,8.371,8.371,0,0,0,4.517-1.321h0A8.458,8.458,0,0,0,16.9,8.451ZM15.4,5.1a16.977,16.977,0,0,0-4.548-.738c-.031-.061-.061-.154-.092-.215a20.95,20.95,0,0,1,2.12-2.028A7.591,7.591,0,0,1,15.4,5.1Zm-9,5.04a.909.909,0,0,0-.307.061A19.132,19.132,0,0,1,3.81,6.945a1.116,1.116,0,0,0,.338-.8h0a16.987,16.987,0,0,1,4.64-.983,1.763,1.763,0,0,0,.123.215A16.513,16.513,0,0,0,6.392,10.141ZM2.213,5.378a1.091,1.091,0,0,0-.307.768V6.3a10.362,10.362,0,0,0-.983.522,6.966,6.966,0,0,1,.953-2.366A7.181,7.181,0,0,0,2.213,5.378ZM8.451.738a7.791,7.791,0,0,1,3.78.983,20.959,20.959,0,0,0-2,1.936.982.982,0,0,0-.43-.092,1.116,1.116,0,0,0-1.076.83A18.922,18.922,0,0,0,3.872,5.439a1.143,1.143,0,0,0-.86-.4.277.277,0,0,0-.154.031,12.027,12.027,0,0,1-.492-1.321A7.656,7.656,0,0,1,8.451.738ZM.738,8.451a4.758,4.758,0,0,1,.031-.676q.738-.461,1.475-.83a1.149,1.149,0,0,0,.768.307H3.1A20.242,20.242,0,0,0,5.47,10.663a1.012,1.012,0,0,0-.184.584,1.046,1.046,0,0,0,.492.922,19.222,19.222,0,0,0-.4,3.38A7.753,7.753,0,0,1,.738,8.451Zm7.713,7.713a7.24,7.24,0,0,1-2.3-.369,17.64,17.64,0,0,1,.4-3.472.929.929,0,0,0,.492-.154,15.169,15.169,0,0,0,5.04,3.073A7.4,7.4,0,0,1,8.451,16.164Zm4.425-1.383A14.629,14.629,0,0,1,7.5,11.647a1.557,1.557,0,0,0,.061-.4,1.077,1.077,0,0,0-.461-.891A19.043,19.043,0,0,1,9.5,5.746a1.092,1.092,0,0,0,.307.061A1.148,1.148,0,0,0,10.848,5.1a15.653,15.653,0,0,1,4.947.922,7.238,7.238,0,0,1,.4,2.458A7.826,7.826,0,0,1,12.876,14.781Z"/>
</svg>
