<svg xmlns="http://www.w3.org/2000/svg" viewBox="0 0 15.971 16">
  <defs>
    <style>
      .cls-1 {
        fill: #fff;
      }
    </style>
  </defs>
  <path id="creative_design" data-name="creative design" class="cls-1" d="M14.258,0H1.713A1.723,1.723,0,0,0,0,1.742v9.263a1.723,1.723,0,0,0,1.713,1.742H5.895l-.523.523a.4.4,0,0,0-.145.29l-.348,1.655-.087.436A.287.287,0,0,0,5.053,16h.058l.436-.087,1.626-.348a.6.6,0,0,0,.29-.174l2.584-2.642h4.211a1.742,1.742,0,0,0,1.713-1.742V1.742A1.723,1.723,0,0,0,14.258,0Zm0,7.463-1.1-1.132a.7.7,0,0,0-.987,0L8.857,9.7H6.708V.639a9.1,9.1,0,0,1,5.953,2.73,9.465,9.465,0,0,1,2.7,6.33H13.038l1.22-1.249A.719.719,0,0,0,14.258,7.463ZM5.6,9.7c.058-.029.087-.087.116-.116a1.771,1.771,0,0,0,.348-.465V9.7ZM.61,8.421a3.243,3.243,0,0,0,.552.7,3.243,3.243,0,0,0,.7.552H.61Zm.987.261A3.405,3.405,0,0,1,.61,6.272h0A5.717,5.717,0,0,1,2.236,2.265,5.431,5.431,0,0,1,6.1.639v6.04c-.058-.058-.087-.116-.145-.174A1.736,1.736,0,0,0,4.7,5.982h0a.944.944,0,0,0-.726.319,1.028,1.028,0,0,0-.29.755,1.161,1.161,0,0,0,.29.755,1.04,1.04,0,0,0,.726.319.319.319,0,1,0,0-.639.444.444,0,0,1-.29-.116A.437.437,0,0,1,4.3,7.056a.609.609,0,0,1,.116-.319.373.373,0,0,1,.29-.116,1.054,1.054,0,0,1,.813.348,1.163,1.163,0,0,1,.348.842,1.984,1.984,0,0,1-.552,1.365,1.8,1.8,0,0,1-1.336.552A3.4,3.4,0,0,1,1.6,8.682ZM6.156.639ZM.61,1.742a1.1,1.1,0,0,1,1.1-1.1H3.485A5.671,5.671,0,0,0,1.8,1.858,6.265,6.265,0,0,0,.61,3.572Zm1.1,10.338a1.1,1.1,0,0,1-1.1-1.1v-.668H8.247L6.5,12.08ZM7.027,14.9l-.668.145-.7-.7.145-.7.929-.958.61-.639,1.742-1.771.61-.639,2.875-2.933a.1.1,0,0,1,.058-.029c.029,0,.029,0,.058.029l1.1,1.132a.1.1,0,0,1,.029.058c0,.029,0,.029-.029.058L12.138,9.641l-.61.639L9.786,12.051l-.61.639Zm8.334-3.92a1.1,1.1,0,0,1-1.1,1.1h-3.6L12.4,10.309h2.962ZM13.1,2.933A9.571,9.571,0,0,0,9.583.639h4.675a1.1,1.1,0,0,1,1.1,1.1V6.5A9.85,9.85,0,0,0,13.1,2.933Z"/>
</svg>
