<svg xmlns="http://www.w3.org/2000/svg" viewBox="0 0 17.27 17.271">
  <defs>
    <style>
      .cls-1 {
        fill: #5472c6;
        fill-rule: evenodd;
      }
    </style>
  </defs>
  <g id="ecommerce" transform="translate(0 -0.021)">
    <path id="Path_3344" data-name="Path 3344" class="cls-1" d="M23.171,8.461a2.051,2.051,0,0,0,2.041-2.01c-.031-1.476,0-2.92,0-4.4a2.252,2.252,0,0,0-.188-.911,2.022,2.022,0,0,0-3.831.911v4.4A2,2,0,0,0,23.171,8.461ZM21.884,2.024A1.275,1.275,0,0,1,22.857.768a1.2,1.2,0,0,1,1.35.565,1.631,1.631,0,0,1,.22.785c.031,1.413,0,2.857,0,4.27a1.222,1.222,0,0,1-1.287,1.35,1.3,1.3,0,0,1-1.287-1.382V4.222h0C21.884,3.5,21.884,2.778,21.884,2.024Z" transform="translate(-14.537 0)"/>
    <path id="Path_3345" data-name="Path 3345" class="cls-1" d="M23.277,36.893c-.283-.031-.377.188-.377.44v2.575c0,.251.063.44.377.44.283,0,.377-.188.377-.44V37.364C23.622,37.082,23.528,36.925,23.277,36.893Z" transform="translate(-15.709 -25.293)"/>
    <path id="Path_3346" data-name="Path 3346" class="cls-1" d="M30.077,40.347c.283.031.377-.188.377-.44V37.333c0-.251-.063-.471-.377-.44-.283.031-.377.22-.377.5v2.512C29.731,40.128,29.826,40.316,30.077,40.347Z" transform="translate(-20.374 -25.293)"/>
    <path id="Path_3347" data-name="Path 3347" class="cls-1" d="M36.9,38.458v1.319c0,.251.094.408.345.408s.377-.157.377-.408V37.14a.391.391,0,0,0-.345-.44c-.283,0-.377.188-.377.44v1.319Z" transform="translate(-25.314 -25.162)"/>
    <path id="Path_3348" data-name="Path 3348" class="cls-1" d="M16.522,37.308c0-.251-.094-.408-.345-.408s-.377.157-.377.408v2.638c0,.251.126.408.377.408s.345-.188.345-.408V38.658h0Z" transform="translate(-10.839 -25.299)"/>
    <path id="Path_3349" data-name="Path 3349" class="cls-1" d="M17.27,22.073A.907.907,0,0,0,16.3,21.1H12.591c-.251,0-.44.063-.44.377s.22.345.44.345h3.3c.628,0,.628,0,.628.659v.785c0,.565,0,.565-.534.565H1.036c-.22,0-.314-.094-.314-.314,0-.408.031-.848,0-1.256-.031-.345.126-.471.471-.44H4.616c.251,0,.534,0,.5-.377,0-.345-.251-.345-.5-.345H.973A.9.9,0,0,0,0,22.042v1.57c.031.691.377.973,1.225.942.408,0,.565.157.565.5,0,.094-.031.22,0,.283a.4.4,0,0,0,.031.188v.094a.443.443,0,0,0,.031.283c.126.754.345,2.229.534,3.423a.691.691,0,0,0,.031.251c0,.063.031.126.031.188a.436.436,0,0,0,.063.345c.094.6.157,1,.157,1,.094.628.094.628.722.628H13.753c.126,0,.251.031.345-.031.126-.063.314-.188.345-.314.094-.471.157-.911.251-1.382l.754-5.087c.031-.251.157-.408.44-.377h.345c.722-.031,1.036-.345,1.036-1.036Zm-2.512,2.983a1.335,1.335,0,0,1-.063.345c-.126.911-.283,1.821-.408,2.732-.126.848-.283,1.7-.408,2.543a.331.331,0,0,1-.377.314H3.768c-.22,0-.314-.094-.345-.314a4.446,4.446,0,0,0-.126-.628.068.068,0,0,1-.063-.063.235.235,0,0,0,.031-.157c0,.063.031.126.031.188h0c0-.031-.031-.314-.094-.659a.534.534,0,0,0-.031-.22c-.157-.848-.345-2.135-.345-2.2-.094-.534-.188-1.068-.251-1.6v-.063c0-.063-.031-.126-.031-.188-.063-.471-.031-.5.44-.5H14.318C14.758,24.554,14.789,24.585,14.758,25.056Z" transform="translate(0 -14.46)"/>
    <path id="Path_3350" data-name="Path 3350" class="cls-1" d="M27.059,17.6H26.4v.722h.659Z" transform="translate(-18.111 -12.059)"/>
  </g>
</svg>
