<svg xmlns="http://www.w3.org/2000/svg" viewBox="0 0 27.599 27.599">
  <defs>
    <style>
      .cls-1 {
        fill: #fff;
      }
    </style>
  </defs>
  <g id="Group_366" data-name="Group 366" transform="translate(0)">
    <path id="Path_3061" data-name="Path 3061" class="cls-1" d="M162.77,11.535a5.3,5.3,0,0,0-.552-.867,2.349,2.349,0,0,0-.867-.552,3.657,3.657,0,0,0-1.341-.237c-.789,0-1.025-.079-2.918-.079a22.542,22.542,0,0,0-2.918.079,3.657,3.657,0,0,0-1.34.237,5.3,5.3,0,0,0-.867.552,2.349,2.349,0,0,0-.552.867,3.657,3.657,0,0,0-.237,1.341c0,.789-.079,1.025-.079,2.918a22.545,22.545,0,0,0,.079,2.918,3.657,3.657,0,0,0,.237,1.341,5.3,5.3,0,0,0,.552.867,2.349,2.349,0,0,0,.867.552,3.657,3.657,0,0,0,1.34.237c.789,0,1.025.079,2.918.079a22.541,22.541,0,0,0,2.918-.079,3.657,3.657,0,0,0,1.341-.237,5.3,5.3,0,0,0,.867-.552,2.349,2.349,0,0,0,.552-.867,3.658,3.658,0,0,0,.237-1.341c0-.789.079-1.025.079-2.918a22.54,22.54,0,0,0-.079-2.918A4.565,4.565,0,0,0,162.77,11.535Zm-5.677,8.122a3.785,3.785,0,1,1,3.785-3.785A3.892,3.892,0,0,1,157.093,19.657Zm3.864-6.781a.867.867,0,1,1,.867-.867A.875.875,0,0,1,160.957,12.875Z" transform="translate(-143.294 -2.072)"/>
    <path id="Path_3062" data-name="Path 3062" class="cls-1" d="M158.044,14.4a2.444,2.444,0,1,0,2.444,2.444A2.457,2.457,0,0,0,158.044,14.4Z" transform="translate(-144.245 -3.045)"/>
    <path id="Path_3063" data-name="Path 3063" class="cls-1" d="M155,0a13.8,13.8,0,1,0,13.8,13.8A13.764,13.764,0,0,0,155,0Zm7.254,16.8a4.529,4.529,0,0,1-.315,1.735,3.3,3.3,0,0,1-.867,1.262,4.506,4.506,0,0,1-1.262.867,5.246,5.246,0,0,1-1.735.315c-.789,0-1.025.079-3,.079a24.89,24.89,0,0,1-3-.079,4.529,4.529,0,0,1-1.735-.315,3.3,3.3,0,0,1-1.262-.867,4.507,4.507,0,0,1-.867-1.262A5.246,5.246,0,0,1,147.9,16.8c0-.789-.079-1.025-.079-3a24.888,24.888,0,0,1,.079-3,4.529,4.529,0,0,1,.315-1.735,3.3,3.3,0,0,1,.867-1.262,4.507,4.507,0,0,1,1.262-.867,5.246,5.246,0,0,1,1.735-.315c.789,0,1.025-.079,3-.079a24.89,24.89,0,0,1,3,.079,4.528,4.528,0,0,1,1.735.315,3.3,3.3,0,0,1,1.262.867,4.506,4.506,0,0,1,.867,1.262,5.246,5.246,0,0,1,.315,1.735c0,.789.079,1.025.079,3C162.254,15.771,162.254,16.007,162.254,16.8Z" transform="translate(-141.2)"/>
  </g>
</svg>
