<svg xmlns="http://www.w3.org/2000/svg" viewBox="0 0 27.599 27.599">
  <defs>
    <style>
      .cls-1 {
        fill: #fff;
        fill-rule: evenodd;
      }
    </style>
  </defs>
  <path id="Path_3059" data-name="Path 3059" class="cls-1" d="M202,0a13.8,13.8,0,1,0,13.8,13.8A13.764,13.764,0,0,0,202,0Zm-4.1,18.688V20.66h-2.918V11.591h2.6c.237,0,.315.079.315.315Zm-1.419-8.28a1.735,1.735,0,1,1,1.735-1.735A1.75,1.75,0,0,1,196.48,10.409Zm12.774,8.043v2.208h-2.918V15.14a1.45,1.45,0,0,0-.946-1.341,2.391,2.391,0,0,0-2.366.631.832.832,0,0,0-.158.394v5.756h-2.918V11.513h2.918v1.262c.079-.079.079-.158.158-.158a3.043,3.043,0,0,1,3-1.5,3.267,3.267,0,0,1,2.839,2.05,7.75,7.75,0,0,1,.394,1.262A34.181,34.181,0,0,1,209.254,18.452Z" transform="translate(-188.2)"/>
</svg>
