<svg xmlns="http://www.w3.org/2000/svg" viewBox="0 0 13.422 17.2">
  <defs>
    <style>
      .cls-1 {
        fill: #fff;
      }
    </style>
  </defs>
  <g id="marketing_activation" data-name="marketing activation" transform="translate(-701.1 -154.8)">
    <g id="Group_1322" data-name="Group 1322" transform="translate(702.317 159.326)">
      <path id="Path_3981" data-name="Path 3981" class="cls-1" d="M705.624,177.26H705a3.081,3.081,0,0,1,2.934-3.278h1.4c1.935.031,4.37.031,5.182-.78a.9.9,0,0,0,.281-.656V169.3h.624v3.246a1.506,1.506,0,0,1-.437,1.093c-1,1-3.465.968-5.619.936H708C705.656,174.669,705.624,177.166,705.624,177.26Z" transform="translate(-705 -169.3)"/>
    </g>
    <g id="Group_1323" data-name="Group 1323" transform="translate(710.621 160.887)">
      <path id="Path_3982" data-name="Path 3982" class="cls-1" d="M731.6,174.3" transform="translate(-731.6 -174.3)"/>
    </g>
    <g id="Group_1324" data-name="Group 1324" transform="translate(710.371 158.889)">
      <path id="Path_3983" data-name="Path 3983" class="cls-1" d="M734.515,170.585l-1.654-1.779-1.592,1.779-.468-.437,2.06-2.248,2.091,2.248Z" transform="translate(-730.8 -167.9)"/>
    </g>
    <g id="Group_1325" data-name="Group 1325" transform="translate(710.683 154.8)">
      <path id="Path_3984" data-name="Path 3984" class="cls-1" d="M733.517,158.234a1.717,1.717,0,1,1,1.717-1.717A1.732,1.732,0,0,1,733.517,158.234Zm0-2.778a1.093,1.093,0,1,0,1.093,1.093A1.106,1.106,0,0,0,733.517,155.456Z" transform="translate(-731.8 -154.8)"/>
    </g>
    <g id="Group_1326" data-name="Group 1326" transform="translate(701.1 168.566)">
      <path id="Path_3985" data-name="Path 3985" class="cls-1" d="M702.817,202.334a1.717,1.717,0,1,1,1.717-1.717A1.732,1.732,0,0,1,702.817,202.334Zm0-2.809a1.093,1.093,0,1,0,1.092,1.093A1.106,1.106,0,0,0,702.817,199.524Z" transform="translate(-701.1 -198.9)"/>
    </g>
    <g id="Group_1327" data-name="Group 1327" transform="translate(705.923 167.98)">
      <rect id="Rectangle_1854" data-name="Rectangle 1854" class="cls-1" width="0.624" height="3.683" transform="translate(0 0.441) rotate(-45)"/>
    </g>
    <g id="Group_1328" data-name="Group 1328" transform="translate(705.923 167.98)">
      <rect id="Rectangle_1855" data-name="Rectangle 1855" class="cls-1" width="3.683" height="0.624" transform="translate(0 2.605) rotate(-45)"/>
    </g>
    <g id="Group_1329" data-name="Group 1329" transform="translate(705.923 167.98)">
      <rect id="Rectangle_1856" data-name="Rectangle 1856" class="cls-1" width="0.624" height="3.683" transform="translate(0 0.441) rotate(-45)"/>
    </g>
    <g id="Group_1330" data-name="Group 1330" transform="translate(704.463 159.109)">
      <rect id="Rectangle_1857" data-name="Rectangle 1857" class="cls-1" width="3.683" height="0.624" transform="translate(0 2.605) rotate(-45)"/>
    </g>
    <g id="Group_1331" data-name="Group 1331" transform="translate(704.463 159.109)">
      <rect id="Rectangle_1858" data-name="Rectangle 1858" class="cls-1" width="0.624" height="3.683" transform="translate(0 0.441) rotate(-45)"/>
    </g>
    <g id="Group_1332" data-name="Group 1332" transform="translate(710.931 165.761)">
      <rect id="Rectangle_1859" data-name="Rectangle 1859" class="cls-1" width="3.683" height="0.624" transform="translate(0 2.605) rotate(-45)"/>
    </g>
    <g id="Group_1333" data-name="Group 1333" transform="translate(710.934 165.767)">
      <rect id="Rectangle_1860" data-name="Rectangle 1860" class="cls-1" width="0.624" height="3.683" transform="translate(0 0.441) rotate(-45)"/>
    </g>
  </g>
</svg>
