<svg xmlns="http://www.w3.org/2000/svg" viewBox="0 0 13.766 17.6">
  <defs>
    <style>
      .cls-1, .cls-2 {
        fill: none;
      }

      .cls-1 {
        stroke: #5472c6;
        stroke-miterlimit: 10;
        stroke-width: 0.6px;
      }
    </style>
  </defs>
  <g id="marketing_activation" data-name="marketing activation" transform="translate(-0.699 -0.7)">
    <path id="Path_3402" data-name="Path 3402" class="cls-1" d="M15.04,14.5v3.336c0,2.181-4.651,1.732-7.345,1.8S5,22.679,5,22.679" transform="translate(-2.717 -9.17)"/>
    <path id="Path_3403" data-name="Path 3403" class="cls-2" d="M30.4,19.4" transform="translate(-19.97 -12.498)"/>
    <path id="Path_3404" data-name="Path 3404" class="cls-1" d="M34.217,16.553,32.292,14.5,30.4,16.553" transform="translate(-19.97 -9.17)"/>
    <circle id="Ellipse_102" data-name="Ellipse 102" class="cls-1" cx="1.443" cy="1.443" r="1.443" transform="translate(10.815 1)"/>
    <circle id="Ellipse_103" data-name="Ellipse 103" class="cls-1" cx="1.443" cy="1.443" r="1.443" transform="translate(1 15.113)"/>
    <line id="Line_116" data-name="Line 116" class="cls-1" x2="2.694" y2="2.662" transform="translate(5.843 14.408)"/>
    <line id="Line_117" data-name="Line 117" class="cls-1" x1="2.694" y2="2.662" transform="translate(5.843 14.408)"/>
    <line id="Line_118" data-name="Line 118" class="cls-1" x2="2.694" y2="2.662" transform="translate(5.843 14.408)"/>
    <line id="Line_119" data-name="Line 119" class="cls-1" x1="2.662" y2="2.662" transform="translate(4.368 5.33)"/>
    <line id="Line_120" data-name="Line 120" class="cls-1" x2="2.662" y2="2.662" transform="translate(4.368 5.33)"/>
    <line id="Line_121" data-name="Line 121" class="cls-1" x1="2.662" y2="2.662" transform="translate(11.008 12.162)"/>
    <line id="Line_122" data-name="Line 122" class="cls-1" x2="2.662" y2="2.662" transform="translate(11.008 12.162)"/>
  </g>
</svg>
