<svg xmlns="http://www.w3.org/2000/svg" viewBox="0 0 12.273 18">
  <defs>
    <style>
      .cls-1 {
        fill: #fff;
      }
    </style>
  </defs>
  <g id="mobile" transform="translate(0 0.1)">
    <path id="Path_3351" data-name="Path 3351" class="cls-1" d="M12.273,8.933V1.765a2.268,2.268,0,0,0-.1-.655A1.779,1.779,0,0,0,10.276-.1C7.495-.067,4.746-.067,2-.067a2.477,2.477,0,0,0-.491.033A1.724,1.724,0,0,0,0,1.667v14.5a1.659,1.659,0,0,0,.687,1.342A2.065,2.065,0,0,0,2,17.9c2.749,0,5.466-.033,8.215,0a1.932,1.932,0,0,0,2.062-2.029C12.207,13.58,12.273,11.256,12.273,8.933ZM.753,1.569A1.135,1.135,0,0,1,1.964.685h8.444a1.076,1.076,0,0,1,1.113,1.08c0,.327-.131.458-.458.458H1.309C.785,2.224.655,2.093.753,1.569Zm0,1.9c0-.36.131-.458.458-.458h9.851c.36,0,.458.131.458.491V14.366c0,.393-.131.491-.491.491-1.145-.033-2.291,0-3.436,0H4.811a1.009,1.009,0,0,0-.327-.033,2.815,2.815,0,0,0-.524.033H1.211c-.327,0-.458-.1-.458-.425C.753,10.766.753,7.1.753,3.467ZM11.487,16.231a1.13,1.13,0,0,1-1.211.916H1.735A1.066,1.066,0,0,1,.753,16c0-.295.131-.393.393-.393h.884a5.771,5.771,0,0,0,.753,0h8.149C11.487,15.642,11.586,15.74,11.487,16.231Z"/>
    <path id="Path_3352" data-name="Path 3352" class="cls-1" d="M5.858,17.767H8.509a.447.447,0,0,0,.458-.458V14.658a.447.447,0,0,0-.458-.458H5.858a.447.447,0,0,0-.458.458v2.651A.468.468,0,0,0,5.858,17.767Zm.327-2.782H8.149v1.964H6.185Z" transform="translate(-3.633 -9.62)"/>
    <path id="Path_3353" data-name="Path 3353" class="cls-1" d="M5.858,33.567H8.509a.447.447,0,0,0,.458-.458V30.458A.447.447,0,0,0,8.509,30H5.858a.447.447,0,0,0-.458.458v2.651A.468.468,0,0,0,5.858,33.567Zm.327-2.782H8.149v1.964H6.185Z" transform="translate(-3.633 -20.249)"/>
    <path id="Path_3354" data-name="Path 3354" class="cls-1" d="M21.658,17.767h2.651a.447.447,0,0,0,.458-.458V14.658a.447.447,0,0,0-.458-.458H21.658a.447.447,0,0,0-.458.458v2.651A.468.468,0,0,0,21.658,17.767Zm.36-2.782h1.964v1.964H22.018Z" transform="translate(-14.262 -9.62)"/>
  </g>
</svg>
