<svg id="promote" xmlns="http://www.w3.org/2000/svg" xmlns:xlink="http://www.w3.org/1999/xlink" viewBox="0 0 60 55.824">
  <defs>
    <style>
      .cls-1 {
        fill: url(#linear-gradient);
      }

      .cls-2 {
        fill: url(#linear-gradient-2);
      }

      .cls-3 {
        fill: url(#linear-gradient-3);
      }
    </style>
    <linearGradient id="linear-gradient" y1="0.5" x2="1" y2="0.5" gradientUnits="objectBoundingBox">
      <stop offset="0.013" stop-color="#d70042"/>
      <stop offset="0.523" stop-color="#b40066"/>
      <stop offset="0.992" stop-color="#91008a"/>
    </linearGradient>
    <linearGradient id="linear-gradient-2" x1="-0.001" y1="0.504" x2="0.999" y2="0.504" xlink:href="#linear-gradient"/>
    <linearGradient id="linear-gradient-3" x1="0.006" y1="0.504" x2="1.002" y2="0.504" xlink:href="#linear-gradient"/>
  </defs>
  <g id="oQhOiA_1_" transform="translate(0)">
    <g id="Group_415" data-name="Group 415">
      <g id="Group_414" data-name="Group 414">
        <path id="Path_3128" data-name="Path 3128" class="cls-1" d="M10.936,55.824A3.1,3.1,0,0,1,9.374,55.3a2.622,2.622,0,0,1-.937-2.083v-10.1H2.708A2.516,2.516,0,0,1,0,40.41V11.04A2.648,2.648,0,0,1,2.5,8.332a2.284,2.284,0,0,1,1.771.729A2.749,2.749,0,0,1,5,11.04V37.91h5.728a2.547,2.547,0,0,1,2.708,2.812v7.395l3.645-2.708,8.749-6.561a4.279,4.279,0,0,1,2.708-.937h26.35V5.1H2.917A5.071,5.071,0,0,1,1.667,5,2.736,2.736,0,0,1,0,2.291,2.553,2.553,0,0,1,2.292,0H56.97c1.979,0,3.02.937,3.02,3.02V40.1c0,2.083-.937,3.02-3.02,3.02H29.162a1.68,1.68,0,0,0-.937.312C25.517,45.513,22.7,47.492,20,49.575,17.5,51.45,15.1,53.22,12.6,55.1a3.8,3.8,0,0,1-1.458.729ZM8.228,42.285H9.27V53.116a1.679,1.679,0,0,0,.625,1.354,1.369,1.369,0,0,0,1.25.312,3.589,3.589,0,0,0,1.146-.521c2.5-1.875,4.9-3.645,7.395-5.52,2.708-2.083,5.52-4.062,8.228-6.145a2.291,2.291,0,0,1,1.354-.417H57.074c1.562,0,2.187-.625,2.187-2.187V3.02c0-1.562-.625-2.187-2.187-2.187H2.5A1.788,1.788,0,0,0,.834,2.291,1.822,1.822,0,0,0,1.979,4.166a3.211,3.211,0,0,0,1.041.1h52.8V38.952H28.642a3.269,3.269,0,0,0-2.187.729l-8.749,6.561L14.061,48.95c-.1.1-.312.208-.417.312l-.833.625V40.827a1.733,1.733,0,0,0-1.875-1.979H4.375v-27.7A1.98,1.98,0,0,0,3.854,9.79,2.452,2.452,0,0,0,2.5,9.269,1.7,1.7,0,0,0,.834,11.144v29.37a1.75,1.75,0,0,0,1.875,1.875H6.041Z" transform="translate(0.01)"/>
      </g>
    </g>
  </g>
  <g id="Group_417" data-name="Group 417" transform="translate(11.675 26.558)">
    <g id="Group_416" data-name="Group 416">
      <path id="Path_3129" data-name="Path 3129" class="cls-2" d="M45.049,31.749H14.012a3.142,3.142,0,0,1,0-6.249H45.049a3.142,3.142,0,0,1,0,6.249ZM14.012,26.541a2.111,2.111,0,0,0,0,4.166H45.049a2.111,2.111,0,0,0,0-4.166Z" transform="translate(-11.2 -25.5)"/>
    </g>
  </g>
  <g id="Group_419" data-name="Group 419" transform="translate(34.379 16.143)">
    <g id="Group_418" data-name="Group 418">
      <path id="Path_3130" data-name="Path 3130" class="cls-3" d="M44.977,21.749H35.812a3.142,3.142,0,0,1,0-6.249h9.165a3.157,3.157,0,0,1,2.812,3.124A3.075,3.075,0,0,1,44.977,21.749Zm-9.061-5.207a2.111,2.111,0,0,0,0,4.166h9.165a2.111,2.111,0,0,0,0-4.166Z" transform="translate(-33 -15.5)"/>
    </g>
  </g>
</svg>
