<svg xmlns="http://www.w3.org/2000/svg" viewBox="0 0 16.254 16.1">
  <defs>
    <style>
      .cls-1 {
        fill: #fff;
      }
    </style>
  </defs>
  <g id="strategy_and_planning" data-name="strategy and planning" transform="translate(0 -91.084)">
    <g id="Group_1342" data-name="Group 1342" transform="translate(0.954 101.648)">
      <path id="Path_3992" data-name="Path 3992" class="cls-1" d="M5.593,149.572a5.332,5.332,0,0,1-.55-.02l-.177-.02v-.177a4.318,4.318,0,0,1,3.239-4.436l.1-.02.726.726.53.55v.1a3.883,3.883,0,0,1-1.276,2.454A4.028,4.028,0,0,1,5.593,149.572Zm-.353-.412a3.672,3.672,0,0,0,2.67-.746,3.625,3.625,0,0,0,1.139-2.1l-.393-.412-.569-.569A3.808,3.808,0,0,0,5.239,149.16Z" transform="translate(-4.858 -144.9)"/>
    </g>
    <g id="Group_1343" data-name="Group 1343" transform="translate(4.416 91.084)">
      <path id="Path_3993" data-name="Path 3993" class="cls-1" d="M25.362,102.924,22.5,99.94v-.079c0-.118-.137-2.748,3.062-5.948s8.362-2.827,8.578-2.807l.2.02v.2a18.045,18.045,0,0,1-2.1,7.538,8.541,8.541,0,0,1-4.122,3.259,14.31,14.31,0,0,1-2.65.8Zm-2.493-3.141,2.63,2.729c.687-.137,4.711-1.04,6.38-3.848A17.606,17.606,0,0,0,33.9,91.519c-.962-.059-5.339-.039-8.068,2.689C23.026,97.015,22.869,99.371,22.869,99.783Z" transform="translate(-22.496 -91.084)"/>
    </g>
    <g id="Group_1344" data-name="Group 1344" transform="translate(7.597 100.981)">
      <path id="Path_3994" data-name="Path 3994" class="cls-1" d="M38.7,147.7v-4.554h.393V146.8l3.573-3.4v-1.9h.393v2.081Z" transform="translate(-38.7 -141.5)"/>
    </g>
    <g id="Group_1345" data-name="Group 1345" transform="translate(0 95.288)">
      <path id="Path_3995" data-name="Path 3995" class="cls-1" d="M4.593,116.819H0L4.162,112.5H6.38v.393H4.338L.923,116.426H4.593Z" transform="translate(0 -112.5)"/>
    </g>
    <g id="Group_1346" data-name="Group 1346" transform="translate(10.79 91.897)">
      <rect id="Rectangle_1862" data-name="Rectangle 1862" class="cls-1" width="0.393" height="5.948" transform="translate(0 0.278) rotate(-45)"/>
    </g>
  </g>
</svg>
