<svg xmlns="http://www.w3.org/2000/svg" viewBox="0 0 27.598 27.599">
  <defs>
    <style>
      .cls-1 {
        fill: #fff;
        fill-rule: evenodd;
      }
    </style>
  </defs>
  <path id="Path_3058" data-name="Path 3058" class="cls-1" d="M107.9,0a13.8,13.8,0,1,0,13.8,13.8A13.764,13.764,0,0,0,107.9,0Zm8.2,8.832a4.347,4.347,0,0,1-1.34,1.341.434.434,0,0,0-.237.394,10.025,10.025,0,0,1-2.681,7.018,9.142,9.142,0,0,1-5.835,3A9.627,9.627,0,0,1,99.935,19.4c-.158-.079-.237-.158-.394-.237v-.079a7.089,7.089,0,0,0,4.968-1.419,3.494,3.494,0,0,1-3.154-2.366,7.65,7.65,0,0,0,1.34-.079.244.244,0,0,0,.158-.079,3.621,3.621,0,0,1-2.681-3.391,9.534,9.534,0,0,0,1.419.394.077.077,0,0,1,.079-.079,3.441,3.441,0,0,1-1.34-2.129,3.6,3.6,0,0,1,.394-2.523,9.927,9.927,0,0,0,7.018,3.627,11.765,11.765,0,0,1,.158-1.656,3.448,3.448,0,0,1,5.677-1.735.434.434,0,0,0,.394.158l1.892-.71a3.593,3.593,0,0,1-1.34,1.735V8.91c.552-.158,1.183-.315,1.735-.473C116.179,8.674,116.179,8.753,116.1,8.832Z" transform="translate(-94.1)"/>
</svg>
