<svg id="UX_design" data-name="UX design" xmlns="http://www.w3.org/2000/svg" viewBox="0 0 18.229 14.149">
  <defs>
    <style>
      .cls-1 {
        fill: #5472c6;
      }
    </style>
  </defs>
  <path id="Path_3396" data-name="Path 3396" class="cls-1" d="M16.635,0H1.593A1.578,1.578,0,0,0,0,1.593V12.556a1.6,1.6,0,0,0,1.593,1.593H16.635a1.6,1.6,0,0,0,1.593-1.593V1.593A1.6,1.6,0,0,0,16.635,0ZM1.593.637H16.635a.959.959,0,0,1,.956.956v.8H.637v-.8A.939.939,0,0,1,1.593.637ZM16.635,13.512H1.593a.959.959,0,0,1-.956-.956V3.027H17.591v9.529A.98.98,0,0,1,16.635,13.512Z"/>
  <rect id="Rectangle_977" data-name="Rectangle 977" class="cls-1" width="10.485" height="0.637" transform="translate(4.43 1.37)"/>
  <rect id="Rectangle_978" data-name="Rectangle 978" class="cls-1" width="0.924" height="0.637" transform="translate(15.775 1.37)"/>
  <path id="Path_3397" data-name="Path 3397" class="cls-1" d="M4.555,4.91a.251.251,0,0,0,.255-.255A.235.235,0,0,0,4.555,4.4a.255.255,0,0,0,0,.51Z" transform="translate(-2.93 -2.998)"/>
  <path id="Path_3398" data-name="Path 3398" class="cls-1" d="M7.255,4.91a.255.255,0,0,0,0-.51.255.255,0,0,0,0,.51Z" transform="translate(-4.769 -2.998)"/>
  <path id="Path_3399" data-name="Path 3399" class="cls-1" d="M9.955,4.91a.251.251,0,0,0,.255-.255A.235.235,0,0,0,9.955,4.4a.255.255,0,1,0,0,.51Z" transform="translate(-6.609 -2.998)"/>
  <path id="Path_3400" data-name="Path 3400" class="cls-1" d="M18.826,12.9h-5.1a.789.789,0,0,0-.8.8v.1H11.783v2.964h-.159v-.319a1.5,1.5,0,0,0-1.5-1.5H6.4a1.5,1.5,0,0,0-1.5,1.5v1.307a1.5,1.5,0,0,0,1.5,1.5h3.7a1.5,1.5,0,0,0,1.5-1.5v-.319h.191v2.964h1.147v.1a.789.789,0,0,0,.8.8h5.131a.789.789,0,0,0,.8-.8v-.829a.789.789,0,0,0-.8-.8H13.727a.789.789,0,0,0-.8.8v.1h-.51V17.425h.51v.1a.789.789,0,0,0,.8.8h5.131a.789.789,0,0,0,.8-.8v-.829a.789.789,0,0,0-.8-.8H13.727a.789.789,0,0,0-.8.8v.1h-.51V14.462h.51v.1a.789.789,0,0,0,.8.8h5.131a.789.789,0,0,0,.8-.8v-.829A.843.843,0,0,0,18.826,12.9Zm-7.84,4.78a.857.857,0,0,1-.86.86H6.4a.857.857,0,0,1-.86-.86V16.374a.857.857,0,0,1,.86-.86h3.7a.857.857,0,0,1,.86.86V17.68Zm2.581,1.88a.151.151,0,0,1,.159-.159h5.131a.151.151,0,0,1,.159.159v.829a.151.151,0,0,1-.159.159H13.727a.151.151,0,0,1-.159-.159Zm0-2.932a.151.151,0,0,1,.159-.159h5.131a.151.151,0,0,1,.159.159v.829a.151.151,0,0,1-.159.159H13.727a.151.151,0,0,1-.159-.159Zm5.418-2.135a.151.151,0,0,1-.159.159h-5.1a.151.151,0,0,1-.159-.159v-.829a.151.151,0,0,1,.159-.159h5.131a.151.151,0,0,1,.159.159v.829Z" transform="translate(-3.338 -8.789)"/>
</svg>
