<svg xmlns="http://www.w3.org/2000/svg" viewBox="0 0 18.924 19">
  <defs>
    <style>
      .cls-1 {
        fill: #fff;
        fill-rule: evenodd;
      }
    </style>
  </defs>
  <g id="Visual_strategy" data-name="Visual strategy" transform="translate(0.014 0.014)">
    <path id="Path_3383" data-name="Path 3383" class="cls-1" d="M26.994,26.128c-.069-.482-.206-.963-.31-1.445a3.027,3.027,0,0,0-.172-.516,1.472,1.472,0,0,0-1.823-.722,1.431,1.431,0,0,0-.963,1.72c.069.447.206.894.31,1.376.1.619.172,1.238.241,1.857.034.413.034.791.034,1.2a.331.331,0,0,0,.241.344.369.369,0,0,0,.378-.034.409.409,0,0,0,.138-.378,19.377,19.377,0,0,0-.138-2.442,18.623,18.623,0,0,0-.413-2,.744.744,0,0,1,.654-.963.7.7,0,0,1,.722.516,1.551,1.551,0,0,1,.1.378c.1.619.241,1.238.344,1.857a15.567,15.567,0,0,1,.172,2.545,13,13,0,0,1-.172,2.3c-.1.55-.206,1.066-.31,1.617l-.1.516a.366.366,0,0,0,.275.447.391.391,0,0,0,.482-.275,18.311,18.311,0,0,0,.482-2.3,18.451,18.451,0,0,0,.172-2.408A13.988,13.988,0,0,1,27.2,27.71C27.131,27.194,27.062,26.678,26.994,26.128Z" transform="translate(-15.548 -15.336)"/>
    <path id="Path_3384" data-name="Path 3384" class="cls-1" d="M29.9,16.853c-.1-.482-.206-.963-.344-1.445a5.124,5.124,0,0,0-1.169-2.064,5.465,5.465,0,0,0-3.956-1.857,5.794,5.794,0,0,0-2.029.275.409.409,0,0,0-.241.516.416.416,0,0,0,.447.241,9.759,9.759,0,0,1,1.066-.206,3.813,3.813,0,0,1,1.754.138,5.181,5.181,0,0,1,1.2.482,4.749,4.749,0,0,1,1.72,1.685,4.393,4.393,0,0,1,.619,1.617c.138.688.31,1.341.413,2.029.1.654.138,1.307.206,1.961,0,.069.034.344.034.413,0,.413.034.826,0,1.2-.034.791-.1,1.548-.138,2.339,0,.1-.034.241.069.344a.382.382,0,0,0,.378.138.407.407,0,0,0,.31-.31c.069-.413.1-.791.138-1.2a20.3,20.3,0,0,0-.1-4.334C30.105,18.126,30.036,17.473,29.9,16.853Z" transform="translate(-14.532 -7.541)"/>
    <path id="Path_3385" data-name="Path 3385" class="cls-1" d="M9.618,7.625A7.448,7.448,0,0,1,11.682,6.7a4.825,4.825,0,0,1,1.41-.206,6.157,6.157,0,0,1,1.376.069,7.6,7.6,0,0,1,1.961.585,7.1,7.1,0,0,1,1.582,1.066.384.384,0,0,0,.55-.034.418.418,0,0,0,0-.55A8.952,8.952,0,0,0,17.254,6.7a7.1,7.1,0,0,0-2.339-.86c-.413-.069-.826-.1-1.238-.138h-.241A7.627,7.627,0,0,0,7.21,8.932a8.241,8.241,0,0,0-1.376,3.474c0,.069-.034.275-.034.482a1.429,1.429,0,0,0,.034.447.42.42,0,0,0,.31.275.38.38,0,0,0,.413-.413,7.287,7.287,0,0,1,.172-1.513A5.916,5.916,0,0,1,7.382,10,7.046,7.046,0,0,1,9.618,7.625Z" transform="translate(-3.814 -3.747)"/>
    <path id="Path_3386" data-name="Path 3386" class="cls-1" d="M24.269,22.761c.069.585.1,1.135.138,1.72a.375.375,0,0,0,.378.344.407.407,0,0,0,.378-.378v-.275h0c-.034-.344-.034-.688-.1-1.066-.069-.516-.138-1.032-.241-1.548-.069-.413-.172-.826-.275-1.238a3.986,3.986,0,0,0-.55-1.376A3.536,3.536,0,0,0,21.1,17.292a3.407,3.407,0,0,0-2,.516,3.513,3.513,0,0,0-1.72,2.958,4.158,4.158,0,0,0,.206,1.307.422.422,0,0,0,.482.275.351.351,0,0,0,.275-.447.81.81,0,0,0-.069-.275,2.376,2.376,0,0,1,.034-1.754,2.685,2.685,0,0,1,2.064-1.754,2.772,2.772,0,0,1,2.3.55,2.683,2.683,0,0,1,.963,1.41c.1.482.206.929.31,1.41A5.721,5.721,0,0,1,24.269,22.761Z" transform="translate(-11.414 -11.35)"/>
    <path id="Path_3387" data-name="Path 3387" class="cls-1" d="M13.008,16.347a5.116,5.116,0,0,1,1.307-1.41.4.4,0,0,0,.1-.55.4.4,0,0,0-.585-.069,7.813,7.813,0,0,0-.963.894,5.233,5.233,0,0,0-.826,1.307,4.95,4.95,0,0,0-.482,1.857,5.569,5.569,0,0,0,.1,1.685,13.136,13.136,0,0,1,.378,1.961,11.532,11.532,0,0,1-.1,3.268c-.069.344-.138.688-.241,1.032a.366.366,0,0,0,.378.482c.069-.034.172-.069.241-.1.138-.1.138-.241.172-.413a17.6,17.6,0,0,0,.344-1.857,12.882,12.882,0,0,0,.034-2,10.405,10.405,0,0,0-.378-2.3,4.421,4.421,0,0,1-.138-1.892A5.16,5.16,0,0,1,13.008,16.347Z" transform="translate(-7.583 -9.339)"/>
    <path id="Path_3388" data-name="Path 3388" class="cls-1" d="M5.9,3.327a8.333,8.333,0,0,1,2.3-1.651,9.988,9.988,0,0,1,1.41-.55A9.321,9.321,0,0,1,11.373.782a9.7,9.7,0,0,1,2.442.1c.206.034.413.1.619.138a.409.409,0,0,0,.413-.344.357.357,0,0,0-.275-.413C14.159.2,13.746.094,13.333.06a8.32,8.32,0,0,0-2.442.034,11,11,0,0,0-2.1.516A8.786,8.786,0,0,0,6.764,1.676,9.933,9.933,0,0,0,3.943,4.6a.4.4,0,0,0-.069.344.408.408,0,0,0,.344.275A.372.372,0,0,0,4.6,4.978,8.63,8.63,0,0,1,5.9,3.327Z" transform="translate(-2.542 0)"/>
    <path id="Path_3389" data-name="Path 3389" class="cls-1" d="M46.691,20.424c-.1-.619-.172-1.238-.31-1.857-.138-.585-.275-1.169-.447-1.754a6.46,6.46,0,0,0-.929-1.892.506.506,0,0,0-.206-.172.376.376,0,0,0-.447.138.412.412,0,0,0,0,.482,6.914,6.914,0,0,1,.894,1.823,15.605,15.605,0,0,1,.413,1.823c.1.585.206,1.2.275,1.789s.1,1.169.138,1.72V23.9a.39.39,0,0,0,.378.413.371.371,0,0,0,.378-.413v-.757A18.441,18.441,0,0,0,46.691,20.424Z" transform="translate(-29.055 -9.667)"/>
    <path id="Path_3390" data-name="Path 3390" class="cls-1" d="M44.194,8.813c-.069-.206-.138-.413-.206-.654a9.133,9.133,0,0,0-1.376-2.545c-.069-.069-.1-.138-.172-.206a5.488,5.488,0,0,1-.55-.654,8.1,8.1,0,0,0-2-1.582,3.466,3.466,0,0,0-.791-.413.4.4,0,0,0-.482.206.391.391,0,0,0,.172.516,1.607,1.607,0,0,0,.344.172,8.419,8.419,0,0,1,2.1,1.582c.034.034.172.138.172.172l.069.069c.31.378.619.757.894,1.169a8.665,8.665,0,0,1,1.066,2.373.414.414,0,0,0,.482.31C44.159,9.226,44.3,9.019,44.194,8.813Z" transform="translate(-25.319 -1.805)"/>
    <path id="Path_3391" data-name="Path 3391" class="cls-1" d="M18.222,34.3a.392.392,0,0,0-.206.413c.034.55.1,1.1.1,1.651a10.267,10.267,0,0,1-.206,2.3c-.1.55-.241,1.066-.378,1.617a.443.443,0,0,0,.034.413.381.381,0,0,0,.344.172.331.331,0,0,0,.31-.275,12.4,12.4,0,0,0,.516-2.236c.1-.654.1-1.307.172-1.961-.069-.619-.1-1.2-.138-1.823A.36.36,0,0,0,18.222,34.3Z" transform="translate(-11.49 -22.474)"/>
    <path id="Path_3392" data-name="Path 3392" class="cls-1" d="M.816,19.566a.391.391,0,0,0-.482.275c-.1.447-.206.894-.275,1.376a8.089,8.089,0,0,0,.034,2.408c.069.378.138.791.241,1.169a.4.4,0,0,0,.447.275.383.383,0,0,0,.275-.447c-.069-.378-.172-.757-.241-1.135-.034-.241-.069-.826-.069-.86v-.31a8.1,8.1,0,0,1,.31-2.2C1.126,19.807,1.023,19.635.816,19.566Z" transform="translate(0 -12.833)"/>
    <path id="Path_3393" data-name="Path 3393" class="cls-1" d="M7.251,32.161a7.239,7.239,0,0,0-.206-.826.414.414,0,0,0-.447-.344.4.4,0,0,0-.31.482c.138.516.241,1,.344,1.513a9.055,9.055,0,0,1-.069,2.889.327.327,0,0,0,.138.378c.034,0,.241.138.378.034.138-.069.172-.1.206-.206s.034-.206.069-.31c0-.1.069-.344.069-.619,0-.654.034-1.273,0-1.926A6.817,6.817,0,0,0,7.251,32.161Z" transform="translate(-4.13 -20.338)"/>
    <path id="Path_3394" data-name="Path 3394" class="cls-1" d="M37.823,42.1c0-.241-.138-.413-.344-.413a.369.369,0,0,0-.413.378,19.4,19.4,0,0,1-.378,3.165.388.388,0,1,0,.757.172c.069-.344.138-.688.172-1.032.069-.482.138-.963.172-1.445a4.787,4.787,0,0,0,.034-.585Z" transform="translate(-24.073 -27.357)"/>
    <path id="Path_3395" data-name="Path 3395" class="cls-1" d="M24.272,44.99a.4.4,0,0,0-.413.275,2.655,2.655,0,0,0-.069.516c-.1.482-.172.963-.31,1.445a5.693,5.693,0,0,1-.206.722.392.392,0,0,0,.378.482A.362.362,0,0,0,24,48.154,4.861,4.861,0,0,0,24.2,47.4c.138-.654.275-1.341.378-2C24.65,45.231,24.478,45.024,24.272,44.99Z" transform="translate(-15.269 -29.52)"/>
  </g>
</svg>
